<mxfile host="Electron" modified="2023-05-17T17:26:05.412Z" agent="Mozilla/5.0 (X11; Linux x86_64) AppleWebKit/537.36 (KHTML, like Gecko) draw.io/21.2.8 Chrome/112.0.5615.165 Electron/24.2.0 Safari/537.36" etag="bmHVkonuh5jzCUjCSN8Y" version="21.2.8" type="device">
  <diagram id="C5RBs43oDa-KdzZeNtuy" name="Page-1">
    <mxGraphModel dx="2427" dy="958" grid="1" gridSize="10" guides="1" tooltips="1" connect="1" arrows="1" fold="1" page="1" pageScale="1" pageWidth="827" pageHeight="1169" math="0" shadow="0">
      <root>
        <mxCell id="WIyWlLk6GJQsqaUBKTNV-0" />
        <mxCell id="WIyWlLk6GJQsqaUBKTNV-1" parent="WIyWlLk6GJQsqaUBKTNV-0" />
        <mxCell id="G1ars9u8O8-HePyWM1Hm-0" value="&lt;div&gt;Deseja-se construir um sistema para gerenciar as informações de&amp;nbsp;&lt;span style=&quot;background-color: initial;&quot;&gt;campeonatos de handebol, que ocorrem todo ano. Deseja-se saber nome, data de nascimento, gênero e&amp;nbsp;&lt;/span&gt;&lt;span style=&quot;background-color: initial;&quot;&gt;altura dos jogadores de cada time, bem como qual deles é o capitão de cada time. Cada partida do&lt;/span&gt;&lt;/div&gt;&lt;div&gt;campeonato ocorre em um estádio, que possui nome e endereço. Cada time possui seu estádio-sede e,&amp;nbsp;&lt;span style=&quot;background-color: initial;&quot;&gt;assim, cada partida possui um time mandante (anfitrião) e o time visitante. O sistema deve ser capaz&amp;nbsp;&lt;/span&gt;&lt;span style=&quot;background-color: initial;&quot;&gt;de listar as partidas já ocorridas e não ocorridas de um campeonato. O sistema deve também ser capaz&amp;nbsp;&lt;/span&gt;&lt;span style=&quot;background-color: initial;&quot;&gt;de listar a tabela do campeonato, ordenando os times por classificação, que é calculada em primeiro&lt;/span&gt;&lt;/div&gt;&lt;div&gt;lugar por saldo de vitórias e em segundo lugar por saldo de gols.&lt;/div&gt;" style="text;html=1;strokeColor=none;fillColor=none;align=center;verticalAlign=middle;whiteSpace=wrap;rounded=0;" vertex="1" parent="WIyWlLk6GJQsqaUBKTNV-1">
          <mxGeometry x="40" y="80" width="760" height="30" as="geometry" />
        </mxCell>
        <mxCell id="G1ars9u8O8-HePyWM1Hm-1" value="Resposta:" style="text;html=1;strokeColor=none;fillColor=none;align=center;verticalAlign=middle;whiteSpace=wrap;rounded=0;" vertex="1" parent="WIyWlLk6GJQsqaUBKTNV-1">
          <mxGeometry x="40" y="160" width="60" height="30" as="geometry" />
        </mxCell>
        <mxCell id="G1ars9u8O8-HePyWM1Hm-2" value="Jogador" style="swimlane;fontStyle=0;childLayout=stackLayout;horizontal=1;startSize=26;fillColor=none;horizontalStack=0;resizeParent=1;resizeParentMax=0;resizeLast=0;collapsible=1;marginBottom=0;whiteSpace=wrap;html=1;" vertex="1" parent="WIyWlLk6GJQsqaUBKTNV-1">
          <mxGeometry x="80.95" y="309" width="140" height="156" as="geometry" />
        </mxCell>
        <mxCell id="G1ars9u8O8-HePyWM1Hm-3" value="- &amp;lt;&amp;lt;oid&amp;gt;&amp;gt; id: UUID" style="text;strokeColor=none;fillColor=none;align=left;verticalAlign=top;spacingLeft=4;spacingRight=4;overflow=hidden;rotatable=0;points=[[0,0.5],[1,0.5]];portConstraint=eastwest;whiteSpace=wrap;html=1;" vertex="1" parent="G1ars9u8O8-HePyWM1Hm-2">
          <mxGeometry y="26" width="140" height="26" as="geometry" />
        </mxCell>
        <mxCell id="G1ars9u8O8-HePyWM1Hm-4" value="- nome: String" style="text;strokeColor=none;fillColor=none;align=left;verticalAlign=top;spacingLeft=4;spacingRight=4;overflow=hidden;rotatable=0;points=[[0,0.5],[1,0.5]];portConstraint=eastwest;whiteSpace=wrap;html=1;" vertex="1" parent="G1ars9u8O8-HePyWM1Hm-2">
          <mxGeometry y="52" width="140" height="26" as="geometry" />
        </mxCell>
        <mxCell id="G1ars9u8O8-HePyWM1Hm-6" value="- dataNascimento: Date" style="text;strokeColor=none;fillColor=none;align=left;verticalAlign=top;spacingLeft=4;spacingRight=4;overflow=hidden;rotatable=0;points=[[0,0.5],[1,0.5]];portConstraint=eastwest;whiteSpace=wrap;html=1;" vertex="1" parent="G1ars9u8O8-HePyWM1Hm-2">
          <mxGeometry y="78" width="140" height="26" as="geometry" />
        </mxCell>
        <mxCell id="G1ars9u8O8-HePyWM1Hm-7" value="- genero: Char" style="text;strokeColor=none;fillColor=none;align=left;verticalAlign=top;spacingLeft=4;spacingRight=4;overflow=hidden;rotatable=0;points=[[0,0.5],[1,0.5]];portConstraint=eastwest;whiteSpace=wrap;html=1;" vertex="1" parent="G1ars9u8O8-HePyWM1Hm-2">
          <mxGeometry y="104" width="140" height="26" as="geometry" />
        </mxCell>
        <mxCell id="G1ars9u8O8-HePyWM1Hm-8" value="- altura: Double" style="text;strokeColor=none;fillColor=none;align=left;verticalAlign=top;spacingLeft=4;spacingRight=4;overflow=hidden;rotatable=0;points=[[0,0.5],[1,0.5]];portConstraint=eastwest;whiteSpace=wrap;html=1;" vertex="1" parent="G1ars9u8O8-HePyWM1Hm-2">
          <mxGeometry y="130" width="140" height="26" as="geometry" />
        </mxCell>
        <mxCell id="G1ars9u8O8-HePyWM1Hm-9" value="Time" style="swimlane;fontStyle=0;childLayout=stackLayout;horizontal=1;startSize=26;fillColor=none;horizontalStack=0;resizeParent=1;resizeParentMax=0;resizeLast=0;collapsible=1;marginBottom=0;whiteSpace=wrap;html=1;" vertex="1" parent="WIyWlLk6GJQsqaUBKTNV-1">
          <mxGeometry x="370.95" y="439" width="140" height="78" as="geometry" />
        </mxCell>
        <mxCell id="G1ars9u8O8-HePyWM1Hm-10" value="- &amp;lt;&amp;lt;oid&amp;gt;&amp;gt;: UUID" style="text;strokeColor=none;fillColor=none;align=left;verticalAlign=top;spacingLeft=4;spacingRight=4;overflow=hidden;rotatable=0;points=[[0,0.5],[1,0.5]];portConstraint=eastwest;whiteSpace=wrap;html=1;" vertex="1" parent="G1ars9u8O8-HePyWM1Hm-9">
          <mxGeometry y="26" width="140" height="26" as="geometry" />
        </mxCell>
        <mxCell id="G1ars9u8O8-HePyWM1Hm-13" value="- nome: String" style="text;strokeColor=none;fillColor=none;align=left;verticalAlign=top;spacingLeft=4;spacingRight=4;overflow=hidden;rotatable=0;points=[[0,0.5],[1,0.5]];portConstraint=eastwest;whiteSpace=wrap;html=1;" vertex="1" parent="G1ars9u8O8-HePyWM1Hm-9">
          <mxGeometry y="52" width="140" height="26" as="geometry" />
        </mxCell>
        <mxCell id="G1ars9u8O8-HePyWM1Hm-14" value="Estadio" style="swimlane;fontStyle=0;childLayout=stackLayout;horizontal=1;startSize=26;fillColor=none;horizontalStack=0;resizeParent=1;resizeParentMax=0;resizeLast=0;collapsible=1;marginBottom=0;whiteSpace=wrap;html=1;" vertex="1" parent="WIyWlLk6GJQsqaUBKTNV-1">
          <mxGeometry x="610.95" y="439" width="140" height="78" as="geometry" />
        </mxCell>
        <mxCell id="G1ars9u8O8-HePyWM1Hm-15" value="- &amp;lt;&amp;lt;oid&amp;gt;&amp;gt; id: UUID" style="text;strokeColor=none;fillColor=none;align=left;verticalAlign=top;spacingLeft=4;spacingRight=4;overflow=hidden;rotatable=0;points=[[0,0.5],[1,0.5]];portConstraint=eastwest;whiteSpace=wrap;html=1;" vertex="1" parent="G1ars9u8O8-HePyWM1Hm-14">
          <mxGeometry y="26" width="140" height="26" as="geometry" />
        </mxCell>
        <mxCell id="G1ars9u8O8-HePyWM1Hm-16" value="- nome: String" style="text;strokeColor=none;fillColor=none;align=left;verticalAlign=top;spacingLeft=4;spacingRight=4;overflow=hidden;rotatable=0;points=[[0,0.5],[1,0.5]];portConstraint=eastwest;whiteSpace=wrap;html=1;" vertex="1" parent="G1ars9u8O8-HePyWM1Hm-14">
          <mxGeometry y="52" width="140" height="26" as="geometry" />
        </mxCell>
        <mxCell id="G1ars9u8O8-HePyWM1Hm-21" style="edgeStyle=orthogonalEdgeStyle;rounded=0;orthogonalLoop=1;jettySize=auto;html=1;endArrow=none;endFill=0;" edge="1" parent="WIyWlLk6GJQsqaUBKTNV-1" source="G1ars9u8O8-HePyWM1Hm-18" target="G1ars9u8O8-HePyWM1Hm-14">
          <mxGeometry relative="1" as="geometry" />
        </mxCell>
        <mxCell id="G1ars9u8O8-HePyWM1Hm-22" value="1" style="edgeLabel;html=1;align=center;verticalAlign=middle;resizable=0;points=[];" vertex="1" connectable="0" parent="G1ars9u8O8-HePyWM1Hm-21">
          <mxGeometry x="0.7368" y="-1" relative="1" as="geometry">
            <mxPoint x="5" y="-2" as="offset" />
          </mxGeometry>
        </mxCell>
        <mxCell id="G1ars9u8O8-HePyWM1Hm-23" value="- estadio" style="edgeLabel;html=1;align=center;verticalAlign=middle;resizable=0;points=[];" vertex="1" connectable="0" parent="G1ars9u8O8-HePyWM1Hm-21">
          <mxGeometry x="0.6667" y="-1" relative="1" as="geometry">
            <mxPoint x="-24" as="offset" />
          </mxGeometry>
        </mxCell>
        <mxCell id="G1ars9u8O8-HePyWM1Hm-24" value="1" style="edgeLabel;html=1;align=center;verticalAlign=middle;resizable=0;points=[];" vertex="1" connectable="0" parent="G1ars9u8O8-HePyWM1Hm-21">
          <mxGeometry x="-0.7368" y="1" relative="1" as="geometry">
            <mxPoint x="3" as="offset" />
          </mxGeometry>
        </mxCell>
        <mxCell id="G1ars9u8O8-HePyWM1Hm-25" value="- endereco" style="edgeLabel;html=1;align=center;verticalAlign=middle;resizable=0;points=[];" vertex="1" connectable="0" parent="G1ars9u8O8-HePyWM1Hm-21">
          <mxGeometry x="-0.7895" y="-1" relative="1" as="geometry">
            <mxPoint x="-29" y="2" as="offset" />
          </mxGeometry>
        </mxCell>
        <mxCell id="G1ars9u8O8-HePyWM1Hm-18" value="Endereço" style="swimlane;fontStyle=0;childLayout=stackLayout;horizontal=1;startSize=26;fillColor=none;horizontalStack=0;resizeParent=1;resizeParentMax=0;resizeLast=0;collapsible=1;marginBottom=0;whiteSpace=wrap;html=1;" vertex="1" parent="WIyWlLk6GJQsqaUBKTNV-1">
          <mxGeometry x="610.95" y="330" width="140" height="52" as="geometry" />
        </mxCell>
        <mxCell id="G1ars9u8O8-HePyWM1Hm-19" value="- &amp;lt;&amp;lt;oid&amp;gt;&amp;gt; CEP: String" style="text;strokeColor=none;fillColor=none;align=left;verticalAlign=top;spacingLeft=4;spacingRight=4;overflow=hidden;rotatable=0;points=[[0,0.5],[1,0.5]];portConstraint=eastwest;whiteSpace=wrap;html=1;" vertex="1" parent="G1ars9u8O8-HePyWM1Hm-18">
          <mxGeometry y="26" width="140" height="26" as="geometry" />
        </mxCell>
        <mxCell id="G1ars9u8O8-HePyWM1Hm-32" style="edgeStyle=orthogonalEdgeStyle;rounded=0;orthogonalLoop=1;jettySize=auto;html=1;entryX=0.998;entryY=0.237;entryDx=0;entryDy=0;entryPerimeter=0;endArrow=none;endFill=0;exitX=0;exitY=0.25;exitDx=0;exitDy=0;" edge="1" parent="WIyWlLk6GJQsqaUBKTNV-1" source="G1ars9u8O8-HePyWM1Hm-9" target="G1ars9u8O8-HePyWM1Hm-4">
          <mxGeometry relative="1" as="geometry">
            <Array as="points">
              <mxPoint x="370.95" y="450" />
              <mxPoint x="280.95" y="450" />
              <mxPoint x="280.95" y="367" />
            </Array>
          </mxGeometry>
        </mxCell>
        <mxCell id="G1ars9u8O8-HePyWM1Hm-33" value="0..14" style="edgeLabel;html=1;align=center;verticalAlign=middle;resizable=0;points=[];" vertex="1" connectable="0" parent="G1ars9u8O8-HePyWM1Hm-32">
          <mxGeometry x="-0.706" y="-2" relative="1" as="geometry">
            <mxPoint x="-109" y="-88" as="offset" />
          </mxGeometry>
        </mxCell>
        <mxCell id="G1ars9u8O8-HePyWM1Hm-34" value="- jogadores" style="edgeLabel;html=1;align=center;verticalAlign=middle;resizable=0;points=[];" vertex="1" connectable="0" parent="G1ars9u8O8-HePyWM1Hm-32">
          <mxGeometry x="0.8974" relative="1" as="geometry">
            <mxPoint x="17" y="8" as="offset" />
          </mxGeometry>
        </mxCell>
        <mxCell id="G1ars9u8O8-HePyWM1Hm-35" value="1" style="edgeLabel;html=1;align=center;verticalAlign=middle;resizable=0;points=[];" vertex="1" connectable="0" parent="G1ars9u8O8-HePyWM1Hm-32">
          <mxGeometry x="-0.8494" y="-1" relative="1" as="geometry">
            <mxPoint y="-7" as="offset" />
          </mxGeometry>
        </mxCell>
        <mxCell id="G1ars9u8O8-HePyWM1Hm-36" value="- timeQueJoga" style="edgeLabel;html=1;align=center;verticalAlign=middle;resizable=0;points=[];" vertex="1" connectable="0" parent="G1ars9u8O8-HePyWM1Hm-32">
          <mxGeometry x="-0.7813" y="2" relative="1" as="geometry">
            <mxPoint x="-29" y="6" as="offset" />
          </mxGeometry>
        </mxCell>
        <mxCell id="G1ars9u8O8-HePyWM1Hm-106" style="edgeStyle=orthogonalEdgeStyle;rounded=0;orthogonalLoop=1;jettySize=auto;html=1;endArrow=none;endFill=0;" edge="1" parent="WIyWlLk6GJQsqaUBKTNV-1" source="G1ars9u8O8-HePyWM1Hm-37" target="G1ars9u8O8-HePyWM1Hm-14">
          <mxGeometry relative="1" as="geometry">
            <Array as="points">
              <mxPoint x="500.95" y="760" />
              <mxPoint x="680.95" y="760" />
            </Array>
          </mxGeometry>
        </mxCell>
        <mxCell id="G1ars9u8O8-HePyWM1Hm-107" value="1" style="edgeLabel;html=1;align=center;verticalAlign=middle;resizable=0;points=[];" vertex="1" connectable="0" parent="G1ars9u8O8-HePyWM1Hm-106">
          <mxGeometry x="0.9341" y="-3" relative="1" as="geometry">
            <mxPoint x="3" y="-6" as="offset" />
          </mxGeometry>
        </mxCell>
        <mxCell id="G1ars9u8O8-HePyWM1Hm-108" value="- local" style="edgeLabel;html=1;align=center;verticalAlign=middle;resizable=0;points=[];" vertex="1" connectable="0" parent="G1ars9u8O8-HePyWM1Hm-106">
          <mxGeometry x="0.9459" relative="1" as="geometry">
            <mxPoint x="-20" y="-3" as="offset" />
          </mxGeometry>
        </mxCell>
        <mxCell id="G1ars9u8O8-HePyWM1Hm-109" value="*" style="edgeLabel;html=1;align=center;verticalAlign=middle;resizable=0;points=[];" vertex="1" connectable="0" parent="G1ars9u8O8-HePyWM1Hm-106">
          <mxGeometry x="-0.9545" y="1" relative="1" as="geometry">
            <mxPoint x="3" as="offset" />
          </mxGeometry>
        </mxCell>
        <mxCell id="G1ars9u8O8-HePyWM1Hm-110" value="- partidas" style="edgeLabel;html=1;align=center;verticalAlign=middle;resizable=0;points=[];" vertex="1" connectable="0" parent="G1ars9u8O8-HePyWM1Hm-106">
          <mxGeometry x="-0.9545" relative="1" as="geometry">
            <mxPoint x="-25" as="offset" />
          </mxGeometry>
        </mxCell>
        <mxCell id="G1ars9u8O8-HePyWM1Hm-37" value="Partida" style="swimlane;fontStyle=0;childLayout=stackLayout;horizontal=1;startSize=26;fillColor=none;horizontalStack=0;resizeParent=1;resizeParentMax=0;resizeLast=0;collapsible=1;marginBottom=0;whiteSpace=wrap;html=1;" vertex="1" parent="WIyWlLk6GJQsqaUBKTNV-1">
          <mxGeometry x="370.95" y="590" width="140" height="130" as="geometry" />
        </mxCell>
        <mxCell id="G1ars9u8O8-HePyWM1Hm-38" value="- &amp;lt;&amp;lt;id&amp;gt;&amp;gt; id: UUID" style="text;strokeColor=none;fillColor=none;align=left;verticalAlign=top;spacingLeft=4;spacingRight=4;overflow=hidden;rotatable=0;points=[[0,0.5],[1,0.5]];portConstraint=eastwest;whiteSpace=wrap;html=1;" vertex="1" parent="G1ars9u8O8-HePyWM1Hm-37">
          <mxGeometry y="26" width="140" height="26" as="geometry" />
        </mxCell>
        <mxCell id="G1ars9u8O8-HePyWM1Hm-39" value="- data: Date" style="text;strokeColor=none;fillColor=none;align=left;verticalAlign=top;spacingLeft=4;spacingRight=4;overflow=hidden;rotatable=0;points=[[0,0.5],[1,0.5]];portConstraint=eastwest;whiteSpace=wrap;html=1;" vertex="1" parent="G1ars9u8O8-HePyWM1Hm-37">
          <mxGeometry y="52" width="140" height="26" as="geometry" />
        </mxCell>
        <mxCell id="G1ars9u8O8-HePyWM1Hm-182" value="- golsMandante: Integer" style="text;strokeColor=none;fillColor=none;align=left;verticalAlign=top;spacingLeft=4;spacingRight=4;overflow=hidden;rotatable=0;points=[[0,0.5],[1,0.5]];portConstraint=eastwest;whiteSpace=wrap;html=1;" vertex="1" parent="G1ars9u8O8-HePyWM1Hm-37">
          <mxGeometry y="78" width="140" height="26" as="geometry" />
        </mxCell>
        <mxCell id="G1ars9u8O8-HePyWM1Hm-183" value="- golsVisitante: Integer" style="text;strokeColor=none;fillColor=none;align=left;verticalAlign=top;spacingLeft=4;spacingRight=4;overflow=hidden;rotatable=0;points=[[0,0.5],[1,0.5]];portConstraint=eastwest;whiteSpace=wrap;html=1;" vertex="1" parent="G1ars9u8O8-HePyWM1Hm-37">
          <mxGeometry y="104" width="140" height="26" as="geometry" />
        </mxCell>
        <mxCell id="G1ars9u8O8-HePyWM1Hm-58" style="edgeStyle=orthogonalEdgeStyle;rounded=0;orthogonalLoop=1;jettySize=auto;html=1;endArrow=none;endFill=0;" edge="1" parent="WIyWlLk6GJQsqaUBKTNV-1" source="G1ars9u8O8-HePyWM1Hm-53" target="G1ars9u8O8-HePyWM1Hm-9">
          <mxGeometry relative="1" as="geometry" />
        </mxCell>
        <mxCell id="G1ars9u8O8-HePyWM1Hm-59" value="*" style="edgeLabel;html=1;align=center;verticalAlign=middle;resizable=0;points=[];" vertex="1" connectable="0" parent="G1ars9u8O8-HePyWM1Hm-58">
          <mxGeometry x="0.7763" y="-1" relative="1" as="geometry">
            <mxPoint x="5" y="1" as="offset" />
          </mxGeometry>
        </mxCell>
        <mxCell id="G1ars9u8O8-HePyWM1Hm-60" value="- times" style="edgeLabel;html=1;align=center;verticalAlign=middle;resizable=0;points=[];" vertex="1" connectable="0" parent="G1ars9u8O8-HePyWM1Hm-58">
          <mxGeometry x="0.7828" relative="1" as="geometry">
            <mxPoint x="-20" as="offset" />
          </mxGeometry>
        </mxCell>
        <mxCell id="G1ars9u8O8-HePyWM1Hm-61" value="*" style="edgeLabel;html=1;align=center;verticalAlign=middle;resizable=0;points=[];" vertex="1" connectable="0" parent="G1ars9u8O8-HePyWM1Hm-58">
          <mxGeometry x="-0.9137" relative="1" as="geometry">
            <mxPoint x="5" y="8" as="offset" />
          </mxGeometry>
        </mxCell>
        <mxCell id="G1ars9u8O8-HePyWM1Hm-62" value="- campeonato" style="edgeLabel;html=1;align=center;verticalAlign=middle;resizable=0;points=[];" vertex="1" connectable="0" parent="G1ars9u8O8-HePyWM1Hm-58">
          <mxGeometry x="-0.8054" y="1" relative="1" as="geometry">
            <mxPoint x="-37" y="3" as="offset" />
          </mxGeometry>
        </mxCell>
        <mxCell id="G1ars9u8O8-HePyWM1Hm-63" style="edgeStyle=orthogonalEdgeStyle;rounded=0;orthogonalLoop=1;jettySize=auto;html=1;exitX=0.5;exitY=0;exitDx=0;exitDy=0;endArrow=none;endFill=0;" edge="1" parent="WIyWlLk6GJQsqaUBKTNV-1" source="G1ars9u8O8-HePyWM1Hm-53" target="G1ars9u8O8-HePyWM1Hm-37">
          <mxGeometry relative="1" as="geometry">
            <Array as="points">
              <mxPoint x="440.95" y="220" />
              <mxPoint x="60.95" y="220" />
              <mxPoint x="60.95" y="760" />
              <mxPoint x="390.95" y="760" />
            </Array>
          </mxGeometry>
        </mxCell>
        <mxCell id="G1ars9u8O8-HePyWM1Hm-74" value="*" style="edgeLabel;html=1;align=center;verticalAlign=middle;resizable=0;points=[];" vertex="1" connectable="0" parent="G1ars9u8O8-HePyWM1Hm-63">
          <mxGeometry x="0.9856" y="1" relative="1" as="geometry">
            <mxPoint x="5" as="offset" />
          </mxGeometry>
        </mxCell>
        <mxCell id="G1ars9u8O8-HePyWM1Hm-75" value="- partidas" style="edgeLabel;html=1;align=center;verticalAlign=middle;resizable=0;points=[];" vertex="1" connectable="0" parent="G1ars9u8O8-HePyWM1Hm-63">
          <mxGeometry x="0.9843" y="3" relative="1" as="geometry">
            <mxPoint x="-22" y="-1" as="offset" />
          </mxGeometry>
        </mxCell>
        <mxCell id="G1ars9u8O8-HePyWM1Hm-76" value="1" style="edgeLabel;html=1;align=center;verticalAlign=middle;resizable=0;points=[];" vertex="1" connectable="0" parent="G1ars9u8O8-HePyWM1Hm-63">
          <mxGeometry x="-0.9779" relative="1" as="geometry">
            <mxPoint x="5" y="4" as="offset" />
          </mxGeometry>
        </mxCell>
        <mxCell id="G1ars9u8O8-HePyWM1Hm-77" value="- campeonato" style="edgeLabel;html=1;align=center;verticalAlign=middle;resizable=0;points=[];" vertex="1" connectable="0" parent="G1ars9u8O8-HePyWM1Hm-63">
          <mxGeometry x="-0.9431" y="-1" relative="1" as="geometry">
            <mxPoint x="-38" y="26" as="offset" />
          </mxGeometry>
        </mxCell>
        <mxCell id="G1ars9u8O8-HePyWM1Hm-53" value="Campeonato" style="swimlane;fontStyle=0;childLayout=stackLayout;horizontal=1;startSize=26;fillColor=none;horizontalStack=0;resizeParent=1;resizeParentMax=0;resizeLast=0;collapsible=1;marginBottom=0;whiteSpace=wrap;html=1;" vertex="1" parent="WIyWlLk6GJQsqaUBKTNV-1">
          <mxGeometry x="370.95" y="270" width="170" height="104" as="geometry" />
        </mxCell>
        <mxCell id="G1ars9u8O8-HePyWM1Hm-56" value="- &amp;lt;&amp;lt;oid&amp;gt;&amp;gt; id: UUID" style="text;strokeColor=none;fillColor=none;align=left;verticalAlign=top;spacingLeft=4;spacingRight=4;overflow=hidden;rotatable=0;points=[[0,0.5],[1,0.5]];portConstraint=eastwest;whiteSpace=wrap;html=1;" vertex="1" parent="G1ars9u8O8-HePyWM1Hm-53">
          <mxGeometry y="26" width="170" height="26" as="geometry" />
        </mxCell>
        <mxCell id="G1ars9u8O8-HePyWM1Hm-57" value="- ano: Integer" style="text;strokeColor=none;fillColor=none;align=left;verticalAlign=top;spacingLeft=4;spacingRight=4;overflow=hidden;rotatable=0;points=[[0,0.5],[1,0.5]];portConstraint=eastwest;whiteSpace=wrap;html=1;" vertex="1" parent="G1ars9u8O8-HePyWM1Hm-53">
          <mxGeometry y="52" width="170" height="26" as="geometry" />
        </mxCell>
        <mxCell id="G1ars9u8O8-HePyWM1Hm-184" value="- nomeCampeonato: Integer" style="text;strokeColor=none;fillColor=none;align=left;verticalAlign=top;spacingLeft=4;spacingRight=4;overflow=hidden;rotatable=0;points=[[0,0.5],[1,0.5]];portConstraint=eastwest;whiteSpace=wrap;html=1;" vertex="1" parent="G1ars9u8O8-HePyWM1Hm-53">
          <mxGeometry y="78" width="170" height="26" as="geometry" />
        </mxCell>
        <mxCell id="G1ars9u8O8-HePyWM1Hm-64" style="edgeStyle=orthogonalEdgeStyle;rounded=0;orthogonalLoop=1;jettySize=auto;html=1;endArrow=none;endFill=0;" edge="1" parent="WIyWlLk6GJQsqaUBKTNV-1" source="G1ars9u8O8-HePyWM1Hm-38">
          <mxGeometry relative="1" as="geometry">
            <mxPoint x="370.95" y="504" as="targetPoint" />
            <Array as="points">
              <mxPoint x="310.95" y="629" />
              <mxPoint x="310.95" y="504" />
              <mxPoint x="370.95" y="504" />
            </Array>
          </mxGeometry>
        </mxCell>
        <mxCell id="G1ars9u8O8-HePyWM1Hm-67" value="- partidasMandante" style="edgeLabel;html=1;align=center;verticalAlign=middle;resizable=0;points=[];" vertex="1" connectable="0" parent="G1ars9u8O8-HePyWM1Hm-64">
          <mxGeometry x="-0.8216" y="1" relative="1" as="geometry">
            <mxPoint x="-28" y="8" as="offset" />
          </mxGeometry>
        </mxCell>
        <mxCell id="G1ars9u8O8-HePyWM1Hm-68" value="*" style="edgeLabel;html=1;align=center;verticalAlign=middle;resizable=0;points=[];" vertex="1" connectable="0" parent="G1ars9u8O8-HePyWM1Hm-64">
          <mxGeometry x="-0.8391" y="-1" relative="1" as="geometry">
            <mxPoint x="14" y="-7" as="offset" />
          </mxGeometry>
        </mxCell>
        <mxCell id="G1ars9u8O8-HePyWM1Hm-70" value="1" style="edgeLabel;html=1;align=center;verticalAlign=middle;resizable=0;points=[];" vertex="1" connectable="0" parent="G1ars9u8O8-HePyWM1Hm-64">
          <mxGeometry x="0.8974" relative="1" as="geometry">
            <mxPoint x="7" y="-9" as="offset" />
          </mxGeometry>
        </mxCell>
        <mxCell id="G1ars9u8O8-HePyWM1Hm-71" value="- mandante" style="edgeLabel;html=1;align=center;verticalAlign=middle;resizable=0;points=[];" vertex="1" connectable="0" parent="G1ars9u8O8-HePyWM1Hm-64">
          <mxGeometry x="0.8624" y="1" relative="1" as="geometry">
            <mxPoint x="-13" y="9" as="offset" />
          </mxGeometry>
        </mxCell>
        <mxCell id="G1ars9u8O8-HePyWM1Hm-65" style="edgeStyle=orthogonalEdgeStyle;rounded=0;orthogonalLoop=1;jettySize=auto;html=1;entryX=1;entryY=0.5;entryDx=0;entryDy=0;endArrow=none;endFill=0;" edge="1" parent="WIyWlLk6GJQsqaUBKTNV-1" source="G1ars9u8O8-HePyWM1Hm-13" target="G1ars9u8O8-HePyWM1Hm-38">
          <mxGeometry relative="1" as="geometry">
            <Array as="points">
              <mxPoint x="570.95" y="504" />
              <mxPoint x="570.95" y="629" />
            </Array>
          </mxGeometry>
        </mxCell>
        <mxCell id="G1ars9u8O8-HePyWM1Hm-66" value="- partidasVisitante" style="edgeLabel;html=1;align=center;verticalAlign=middle;resizable=0;points=[];" vertex="1" connectable="0" parent="G1ars9u8O8-HePyWM1Hm-65">
          <mxGeometry x="0.881" y="1" relative="1" as="geometry">
            <mxPoint x="31" y="7" as="offset" />
          </mxGeometry>
        </mxCell>
        <mxCell id="G1ars9u8O8-HePyWM1Hm-69" value="*" style="edgeLabel;html=1;align=center;verticalAlign=middle;resizable=0;points=[];" vertex="1" connectable="0" parent="G1ars9u8O8-HePyWM1Hm-65">
          <mxGeometry x="0.9102" y="1" relative="1" as="geometry">
            <mxPoint x="-6" y="-10" as="offset" />
          </mxGeometry>
        </mxCell>
        <mxCell id="G1ars9u8O8-HePyWM1Hm-72" value="1" style="edgeLabel;html=1;align=center;verticalAlign=middle;resizable=0;points=[];" vertex="1" connectable="0" parent="G1ars9u8O8-HePyWM1Hm-65">
          <mxGeometry x="-0.8985" y="-1" relative="1" as="geometry">
            <mxPoint x="-7" y="-10" as="offset" />
          </mxGeometry>
        </mxCell>
        <mxCell id="G1ars9u8O8-HePyWM1Hm-73" value="- visitante" style="edgeLabel;html=1;align=center;verticalAlign=middle;resizable=0;points=[];" vertex="1" connectable="0" parent="G1ars9u8O8-HePyWM1Hm-65">
          <mxGeometry x="-0.8286" relative="1" as="geometry">
            <mxPoint x="6" y="8" as="offset" />
          </mxGeometry>
        </mxCell>
        <mxCell id="G1ars9u8O8-HePyWM1Hm-152" style="edgeStyle=orthogonalEdgeStyle;orthogonalLoop=1;jettySize=auto;html=1;exitX=1;exitY=0.25;exitDx=0;exitDy=0;endArrow=none;endFill=0;curved=1;" edge="1" parent="WIyWlLk6GJQsqaUBKTNV-1" source="G1ars9u8O8-HePyWM1Hm-78" target="G1ars9u8O8-HePyWM1Hm-82">
          <mxGeometry relative="1" as="geometry" />
        </mxCell>
        <mxCell id="G1ars9u8O8-HePyWM1Hm-78" value="Campeonato" style="swimlane;fontStyle=0;childLayout=stackLayout;horizontal=1;startSize=26;fillColor=none;horizontalStack=0;resizeParent=1;resizeParentMax=0;resizeLast=0;collapsible=1;marginBottom=0;whiteSpace=wrap;html=1;" vertex="1" parent="WIyWlLk6GJQsqaUBKTNV-1">
          <mxGeometry x="465" y="1240" width="140" height="52" as="geometry" />
        </mxCell>
        <mxCell id="G1ars9u8O8-HePyWM1Hm-79" value="ano = 2023" style="text;strokeColor=none;fillColor=none;align=left;verticalAlign=top;spacingLeft=4;spacingRight=4;overflow=hidden;rotatable=0;points=[[0,0.5],[1,0.5]];portConstraint=eastwest;whiteSpace=wrap;html=1;" vertex="1" parent="G1ars9u8O8-HePyWM1Hm-78">
          <mxGeometry y="26" width="140" height="26" as="geometry" />
        </mxCell>
        <mxCell id="G1ars9u8O8-HePyWM1Hm-148" style="edgeStyle=orthogonalEdgeStyle;orthogonalLoop=1;jettySize=auto;html=1;endArrow=none;endFill=0;curved=1;" edge="1" parent="WIyWlLk6GJQsqaUBKTNV-1" source="G1ars9u8O8-HePyWM1Hm-82" target="G1ars9u8O8-HePyWM1Hm-90">
          <mxGeometry relative="1" as="geometry" />
        </mxCell>
        <mxCell id="G1ars9u8O8-HePyWM1Hm-159" value="visitante" style="edgeLabel;html=1;align=center;verticalAlign=middle;resizable=0;points=[];" vertex="1" connectable="0" parent="G1ars9u8O8-HePyWM1Hm-148">
          <mxGeometry x="-0.1262" y="-1" relative="1" as="geometry">
            <mxPoint x="-9" y="10" as="offset" />
          </mxGeometry>
        </mxCell>
        <mxCell id="G1ars9u8O8-HePyWM1Hm-157" style="edgeStyle=orthogonalEdgeStyle;rounded=0;orthogonalLoop=1;jettySize=auto;html=1;entryX=0.431;entryY=1.036;entryDx=0;entryDy=0;entryPerimeter=0;endArrow=none;endFill=0;" edge="1" parent="WIyWlLk6GJQsqaUBKTNV-1" source="G1ars9u8O8-HePyWM1Hm-82" target="G1ars9u8O8-HePyWM1Hm-113">
          <mxGeometry relative="1" as="geometry" />
        </mxCell>
        <mxCell id="G1ars9u8O8-HePyWM1Hm-82" value="Partida" style="swimlane;fontStyle=0;childLayout=stackLayout;horizontal=1;startSize=26;fillColor=none;horizontalStack=0;resizeParent=1;resizeParentMax=0;resizeLast=0;collapsible=1;marginBottom=0;whiteSpace=wrap;html=1;" vertex="1" parent="WIyWlLk6GJQsqaUBKTNV-1">
          <mxGeometry x="745" y="1120" width="140" height="104" as="geometry" />
        </mxCell>
        <mxCell id="G1ars9u8O8-HePyWM1Hm-83" value="data = 01/02/2023" style="text;strokeColor=none;fillColor=none;align=left;verticalAlign=top;spacingLeft=4;spacingRight=4;overflow=hidden;rotatable=0;points=[[0,0.5],[1,0.5]];portConstraint=eastwest;whiteSpace=wrap;html=1;" vertex="1" parent="G1ars9u8O8-HePyWM1Hm-82">
          <mxGeometry y="26" width="140" height="26" as="geometry" />
        </mxCell>
        <mxCell id="G1ars9u8O8-HePyWM1Hm-185" value="golsMandate: 2" style="text;strokeColor=none;fillColor=none;align=left;verticalAlign=top;spacingLeft=4;spacingRight=4;overflow=hidden;rotatable=0;points=[[0,0.5],[1,0.5]];portConstraint=eastwest;whiteSpace=wrap;html=1;" vertex="1" parent="G1ars9u8O8-HePyWM1Hm-82">
          <mxGeometry y="52" width="140" height="26" as="geometry" />
        </mxCell>
        <mxCell id="G1ars9u8O8-HePyWM1Hm-186" value="golsVisitante: 0" style="text;strokeColor=none;fillColor=none;align=left;verticalAlign=top;spacingLeft=4;spacingRight=4;overflow=hidden;rotatable=0;points=[[0,0.5],[1,0.5]];portConstraint=eastwest;whiteSpace=wrap;html=1;" vertex="1" parent="G1ars9u8O8-HePyWM1Hm-82">
          <mxGeometry y="78" width="140" height="26" as="geometry" />
        </mxCell>
        <mxCell id="G1ars9u8O8-HePyWM1Hm-142" style="edgeStyle=orthogonalEdgeStyle;rounded=0;orthogonalLoop=1;jettySize=auto;html=1;endArrow=none;endFill=0;" edge="1" parent="WIyWlLk6GJQsqaUBKTNV-1" source="G1ars9u8O8-HePyWM1Hm-86" target="G1ars9u8O8-HePyWM1Hm-114">
          <mxGeometry relative="1" as="geometry" />
        </mxCell>
        <mxCell id="G1ars9u8O8-HePyWM1Hm-86" value="Partida" style="swimlane;fontStyle=0;childLayout=stackLayout;horizontal=1;startSize=26;fillColor=none;horizontalStack=0;resizeParent=1;resizeParentMax=0;resizeLast=0;collapsible=1;marginBottom=0;whiteSpace=wrap;html=1;" vertex="1" parent="WIyWlLk6GJQsqaUBKTNV-1">
          <mxGeometry x="745" y="1400" width="140" height="104" as="geometry">
            <mxRectangle x="761" y="1490" width="80" height="30" as="alternateBounds" />
          </mxGeometry>
        </mxCell>
        <mxCell id="G1ars9u8O8-HePyWM1Hm-87" value="data = 01/01/2023" style="text;strokeColor=none;fillColor=none;align=left;verticalAlign=top;spacingLeft=4;spacingRight=4;overflow=hidden;rotatable=0;points=[[0,0.5],[1,0.5]];portConstraint=eastwest;whiteSpace=wrap;html=1;" vertex="1" parent="G1ars9u8O8-HePyWM1Hm-86">
          <mxGeometry y="26" width="140" height="26" as="geometry" />
        </mxCell>
        <mxCell id="G1ars9u8O8-HePyWM1Hm-187" value="golsMandante = 5" style="text;strokeColor=none;fillColor=none;align=left;verticalAlign=top;spacingLeft=4;spacingRight=4;overflow=hidden;rotatable=0;points=[[0,0.5],[1,0.5]];portConstraint=eastwest;whiteSpace=wrap;html=1;" vertex="1" parent="G1ars9u8O8-HePyWM1Hm-86">
          <mxGeometry y="52" width="140" height="26" as="geometry" />
        </mxCell>
        <mxCell id="G1ars9u8O8-HePyWM1Hm-188" value="golsVisitante = 2" style="text;strokeColor=none;fillColor=none;align=left;verticalAlign=top;spacingLeft=4;spacingRight=4;overflow=hidden;rotatable=0;points=[[0,0.5],[1,0.5]];portConstraint=eastwest;whiteSpace=wrap;html=1;" vertex="1" parent="G1ars9u8O8-HePyWM1Hm-86">
          <mxGeometry y="78" width="140" height="26" as="geometry" />
        </mxCell>
        <mxCell id="G1ars9u8O8-HePyWM1Hm-133" style="edgeStyle=orthogonalEdgeStyle;orthogonalLoop=1;jettySize=auto;html=1;exitX=0.25;exitY=0;exitDx=0;exitDy=0;entryX=0.395;entryY=1.038;entryDx=0;entryDy=0;entryPerimeter=0;endArrow=none;endFill=0;curved=1;" edge="1" parent="WIyWlLk6GJQsqaUBKTNV-1" source="G1ars9u8O8-HePyWM1Hm-90" target="G1ars9u8O8-HePyWM1Hm-123">
          <mxGeometry relative="1" as="geometry" />
        </mxCell>
        <mxCell id="G1ars9u8O8-HePyWM1Hm-175" value="time em que joga" style="edgeLabel;html=1;align=center;verticalAlign=middle;resizable=0;points=[];" vertex="1" connectable="0" parent="G1ars9u8O8-HePyWM1Hm-133">
          <mxGeometry x="0.3267" y="-9" relative="1" as="geometry">
            <mxPoint as="offset" />
          </mxGeometry>
        </mxCell>
        <mxCell id="G1ars9u8O8-HePyWM1Hm-134" style="edgeStyle=orthogonalEdgeStyle;orthogonalLoop=1;jettySize=auto;html=1;exitX=0.75;exitY=0;exitDx=0;exitDy=0;entryX=0.694;entryY=1;entryDx=0;entryDy=0;entryPerimeter=0;endArrow=none;endFill=0;curved=1;" edge="1" parent="WIyWlLk6GJQsqaUBKTNV-1" source="G1ars9u8O8-HePyWM1Hm-90" target="G1ars9u8O8-HePyWM1Hm-128">
          <mxGeometry relative="1" as="geometry" />
        </mxCell>
        <mxCell id="G1ars9u8O8-HePyWM1Hm-174" value="time que joga" style="edgeLabel;html=1;align=center;verticalAlign=middle;resizable=0;points=[];" vertex="1" connectable="0" parent="G1ars9u8O8-HePyWM1Hm-134">
          <mxGeometry x="0.1256" y="3" relative="1" as="geometry">
            <mxPoint as="offset" />
          </mxGeometry>
        </mxCell>
        <mxCell id="G1ars9u8O8-HePyWM1Hm-155" style="edgeStyle=orthogonalEdgeStyle;orthogonalLoop=1;jettySize=auto;html=1;entryX=0.099;entryY=0.018;entryDx=0;entryDy=0;exitX=0.876;exitY=0.003;exitDx=0;exitDy=0;exitPerimeter=0;curved=1;endArrow=none;endFill=0;entryPerimeter=0;" edge="1" parent="WIyWlLk6GJQsqaUBKTNV-1" source="G1ars9u8O8-HePyWM1Hm-90" target="G1ars9u8O8-HePyWM1Hm-86">
          <mxGeometry relative="1" as="geometry">
            <Array as="points">
              <mxPoint x="238" y="1151" />
              <mxPoint x="655" y="1151" />
              <mxPoint x="655" y="1323" />
              <mxPoint x="759" y="1323" />
            </Array>
          </mxGeometry>
        </mxCell>
        <mxCell id="G1ars9u8O8-HePyWM1Hm-158" value="mandante" style="edgeLabel;html=1;align=center;verticalAlign=middle;resizable=0;points=[];" vertex="1" connectable="0" parent="G1ars9u8O8-HePyWM1Hm-155">
          <mxGeometry x="-0.4291" y="-2" relative="1" as="geometry">
            <mxPoint as="offset" />
          </mxGeometry>
        </mxCell>
        <mxCell id="G1ars9u8O8-HePyWM1Hm-190" style="edgeStyle=orthogonalEdgeStyle;orthogonalLoop=1;jettySize=auto;html=1;entryX=0;entryY=0.5;entryDx=0;entryDy=0;curved=1;endArrow=none;endFill=0;" edge="1" parent="WIyWlLk6GJQsqaUBKTNV-1" source="G1ars9u8O8-HePyWM1Hm-90" target="G1ars9u8O8-HePyWM1Hm-187">
          <mxGeometry relative="1" as="geometry">
            <Array as="points">
              <mxPoint x="185" y="1260" />
              <mxPoint x="334" y="1260" />
              <mxPoint x="334" y="1430" />
              <mxPoint x="745" y="1430" />
            </Array>
          </mxGeometry>
        </mxCell>
        <mxCell id="G1ars9u8O8-HePyWM1Hm-90" value="Time" style="swimlane;fontStyle=0;childLayout=stackLayout;horizontal=1;startSize=26;fillColor=none;horizontalStack=0;resizeParent=1;resizeParentMax=0;resizeLast=0;collapsible=1;marginBottom=0;whiteSpace=wrap;html=1;" vertex="1" parent="WIyWlLk6GJQsqaUBKTNV-1">
          <mxGeometry x="115" y="1171" width="140" height="52" as="geometry" />
        </mxCell>
        <mxCell id="G1ars9u8O8-HePyWM1Hm-91" value="nome = &quot;Flamengo&quot;" style="text;strokeColor=none;fillColor=none;align=left;verticalAlign=top;spacingLeft=4;spacingRight=4;overflow=hidden;rotatable=0;points=[[0,0.5],[1,0.5]];portConstraint=eastwest;whiteSpace=wrap;html=1;" vertex="1" parent="G1ars9u8O8-HePyWM1Hm-90">
          <mxGeometry y="26" width="140" height="26" as="geometry" />
        </mxCell>
        <mxCell id="G1ars9u8O8-HePyWM1Hm-135" style="edgeStyle=orthogonalEdgeStyle;orthogonalLoop=1;jettySize=auto;html=1;endArrow=none;endFill=0;curved=1;" edge="1" parent="WIyWlLk6GJQsqaUBKTNV-1" source="G1ars9u8O8-HePyWM1Hm-94" target="G1ars9u8O8-HePyWM1Hm-98">
          <mxGeometry relative="1" as="geometry">
            <Array as="points">
              <mxPoint x="145" y="1416" />
              <mxPoint x="55" y="1416" />
            </Array>
          </mxGeometry>
        </mxCell>
        <mxCell id="G1ars9u8O8-HePyWM1Hm-178" value="time que joga" style="edgeLabel;html=1;align=center;verticalAlign=middle;resizable=0;points=[];" vertex="1" connectable="0" parent="G1ars9u8O8-HePyWM1Hm-135">
          <mxGeometry x="0.2542" y="8" relative="1" as="geometry">
            <mxPoint x="9" y="-4" as="offset" />
          </mxGeometry>
        </mxCell>
        <mxCell id="G1ars9u8O8-HePyWM1Hm-136" style="edgeStyle=orthogonalEdgeStyle;orthogonalLoop=1;jettySize=auto;html=1;entryX=0.5;entryY=0;entryDx=0;entryDy=0;endArrow=none;endFill=0;curved=1;" edge="1" parent="WIyWlLk6GJQsqaUBKTNV-1" source="G1ars9u8O8-HePyWM1Hm-94" target="G1ars9u8O8-HePyWM1Hm-102">
          <mxGeometry relative="1" as="geometry">
            <Array as="points">
              <mxPoint x="225" y="1416" />
              <mxPoint x="320" y="1416" />
            </Array>
          </mxGeometry>
        </mxCell>
        <mxCell id="G1ars9u8O8-HePyWM1Hm-179" value="time que joga" style="edgeLabel;html=1;align=center;verticalAlign=middle;resizable=0;points=[];" vertex="1" connectable="0" parent="G1ars9u8O8-HePyWM1Hm-136">
          <mxGeometry x="0.1872" y="-4" relative="1" as="geometry">
            <mxPoint x="-18" y="-10" as="offset" />
          </mxGeometry>
        </mxCell>
        <mxCell id="G1ars9u8O8-HePyWM1Hm-137" style="edgeStyle=orthogonalEdgeStyle;orthogonalLoop=1;jettySize=auto;html=1;exitX=1;exitY=0.25;exitDx=0;exitDy=0;endArrow=none;endFill=0;curved=1;" edge="1" parent="WIyWlLk6GJQsqaUBKTNV-1" source="G1ars9u8O8-HePyWM1Hm-94" target="G1ars9u8O8-HePyWM1Hm-78">
          <mxGeometry relative="1" as="geometry">
            <Array as="points">
              <mxPoint x="255" y="1320" />
              <mxPoint x="535" y="1320" />
            </Array>
          </mxGeometry>
        </mxCell>
        <mxCell id="G1ars9u8O8-HePyWM1Hm-156" style="edgeStyle=orthogonalEdgeStyle;orthogonalLoop=1;jettySize=auto;html=1;entryX=0;entryY=0.75;entryDx=0;entryDy=0;curved=1;endArrow=none;endFill=0;" edge="1" parent="WIyWlLk6GJQsqaUBKTNV-1" source="G1ars9u8O8-HePyWM1Hm-94" target="G1ars9u8O8-HePyWM1Hm-82">
          <mxGeometry relative="1" as="geometry">
            <Array as="points">
              <mxPoint x="235" y="1390" />
              <mxPoint x="655" y="1390" />
              <mxPoint x="655" y="1210" />
            </Array>
          </mxGeometry>
        </mxCell>
        <mxCell id="G1ars9u8O8-HePyWM1Hm-160" value="mandante" style="edgeLabel;html=1;align=center;verticalAlign=middle;resizable=0;points=[];" vertex="1" connectable="0" parent="G1ars9u8O8-HePyWM1Hm-156">
          <mxGeometry x="0.0009" y="6" relative="1" as="geometry">
            <mxPoint x="-1" y="-8" as="offset" />
          </mxGeometry>
        </mxCell>
        <mxCell id="G1ars9u8O8-HePyWM1Hm-191" style="edgeStyle=orthogonalEdgeStyle;orthogonalLoop=1;jettySize=auto;html=1;exitX=0.5;exitY=0;exitDx=0;exitDy=0;entryX=0.03;entryY=-0.21;entryDx=0;entryDy=0;endArrow=none;endFill=0;curved=1;entryPerimeter=0;" edge="1" parent="WIyWlLk6GJQsqaUBKTNV-1" source="G1ars9u8O8-HePyWM1Hm-94" target="G1ars9u8O8-HePyWM1Hm-113">
          <mxGeometry relative="1" as="geometry">
            <Array as="points">
              <mxPoint x="185" y="1270" />
              <mxPoint x="364" y="1270" />
              <mxPoint x="364" y="1140" />
              <mxPoint x="674" y="1140" />
              <mxPoint x="674" y="1051" />
            </Array>
          </mxGeometry>
        </mxCell>
        <mxCell id="G1ars9u8O8-HePyWM1Hm-94" value="Time" style="swimlane;fontStyle=0;childLayout=stackLayout;horizontal=1;startSize=26;fillColor=none;horizontalStack=0;resizeParent=1;resizeParentMax=0;resizeLast=0;collapsible=1;marginBottom=0;whiteSpace=wrap;html=1;" vertex="1" parent="WIyWlLk6GJQsqaUBKTNV-1">
          <mxGeometry x="115" y="1310" width="140" height="52" as="geometry" />
        </mxCell>
        <mxCell id="G1ars9u8O8-HePyWM1Hm-95" value="nome = &quot;Corinthians&quot;" style="text;strokeColor=none;fillColor=none;align=left;verticalAlign=top;spacingLeft=4;spacingRight=4;overflow=hidden;rotatable=0;points=[[0,0.5],[1,0.5]];portConstraint=eastwest;whiteSpace=wrap;html=1;" vertex="1" parent="G1ars9u8O8-HePyWM1Hm-94">
          <mxGeometry y="26" width="140" height="26" as="geometry" />
        </mxCell>
        <mxCell id="G1ars9u8O8-HePyWM1Hm-180" style="edgeStyle=orthogonalEdgeStyle;orthogonalLoop=1;jettySize=auto;html=1;exitX=0.863;exitY=-0.005;exitDx=0;exitDy=0;curved=1;exitPerimeter=0;endArrow=none;endFill=0;" edge="1" parent="WIyWlLk6GJQsqaUBKTNV-1" source="G1ars9u8O8-HePyWM1Hm-98" target="G1ars9u8O8-HePyWM1Hm-94">
          <mxGeometry relative="1" as="geometry" />
        </mxCell>
        <mxCell id="G1ars9u8O8-HePyWM1Hm-181" value="time que capitaneia" style="edgeLabel;html=1;align=center;verticalAlign=middle;resizable=0;points=[];" vertex="1" connectable="0" parent="G1ars9u8O8-HePyWM1Hm-180">
          <mxGeometry x="-0.1187" y="-2" relative="1" as="geometry">
            <mxPoint x="29" as="offset" />
          </mxGeometry>
        </mxCell>
        <mxCell id="G1ars9u8O8-HePyWM1Hm-98" value="Jogador" style="swimlane;fontStyle=0;childLayout=stackLayout;horizontal=1;startSize=26;fillColor=none;horizontalStack=0;resizeParent=1;resizeParentMax=0;resizeLast=0;collapsible=1;marginBottom=0;whiteSpace=wrap;html=1;" vertex="1" parent="WIyWlLk6GJQsqaUBKTNV-1">
          <mxGeometry x="-40" y="1470" width="190" height="130" as="geometry" />
        </mxCell>
        <mxCell id="G1ars9u8O8-HePyWM1Hm-99" value="nome = &quot;Cássio&quot;" style="text;strokeColor=none;fillColor=none;align=left;verticalAlign=top;spacingLeft=4;spacingRight=4;overflow=hidden;rotatable=0;points=[[0,0.5],[1,0.5]];portConstraint=eastwest;whiteSpace=wrap;html=1;" vertex="1" parent="G1ars9u8O8-HePyWM1Hm-98">
          <mxGeometry y="26" width="190" height="26" as="geometry" />
        </mxCell>
        <mxCell id="G1ars9u8O8-HePyWM1Hm-100" value="dataNascimento = 01/01/2021" style="text;strokeColor=none;fillColor=none;align=left;verticalAlign=top;spacingLeft=4;spacingRight=4;overflow=hidden;rotatable=0;points=[[0,0.5],[1,0.5]];portConstraint=eastwest;whiteSpace=wrap;html=1;" vertex="1" parent="G1ars9u8O8-HePyWM1Hm-98">
          <mxGeometry y="52" width="190" height="26" as="geometry" />
        </mxCell>
        <mxCell id="G1ars9u8O8-HePyWM1Hm-101" value="gênero = &#39;M&#39;" style="text;strokeColor=none;fillColor=none;align=left;verticalAlign=top;spacingLeft=4;spacingRight=4;overflow=hidden;rotatable=0;points=[[0,0.5],[1,0.5]];portConstraint=eastwest;whiteSpace=wrap;html=1;" vertex="1" parent="G1ars9u8O8-HePyWM1Hm-98">
          <mxGeometry y="78" width="190" height="26" as="geometry" />
        </mxCell>
        <mxCell id="G1ars9u8O8-HePyWM1Hm-117" value="altura = 1.95" style="text;strokeColor=none;fillColor=none;align=left;verticalAlign=top;spacingLeft=4;spacingRight=4;overflow=hidden;rotatable=0;points=[[0,0.5],[1,0.5]];portConstraint=eastwest;whiteSpace=wrap;html=1;" vertex="1" parent="G1ars9u8O8-HePyWM1Hm-98">
          <mxGeometry y="104" width="190" height="26" as="geometry" />
        </mxCell>
        <mxCell id="G1ars9u8O8-HePyWM1Hm-102" value="Jogador" style="swimlane;fontStyle=0;childLayout=stackLayout;horizontal=1;startSize=26;fillColor=none;horizontalStack=0;resizeParent=1;resizeParentMax=0;resizeLast=0;collapsible=1;marginBottom=0;whiteSpace=wrap;html=1;" vertex="1" parent="WIyWlLk6GJQsqaUBKTNV-1">
          <mxGeometry x="230" y="1470" width="180" height="130" as="geometry" />
        </mxCell>
        <mxCell id="G1ars9u8O8-HePyWM1Hm-103" value="nome = &quot;Marcelinho C.&quot;" style="text;strokeColor=none;fillColor=none;align=left;verticalAlign=top;spacingLeft=4;spacingRight=4;overflow=hidden;rotatable=0;points=[[0,0.5],[1,0.5]];portConstraint=eastwest;whiteSpace=wrap;html=1;" vertex="1" parent="G1ars9u8O8-HePyWM1Hm-102">
          <mxGeometry y="26" width="180" height="26" as="geometry" />
        </mxCell>
        <mxCell id="G1ars9u8O8-HePyWM1Hm-104" value="dataNascimento = 02/02/1999" style="text;strokeColor=none;fillColor=none;align=left;verticalAlign=top;spacingLeft=4;spacingRight=4;overflow=hidden;rotatable=0;points=[[0,0.5],[1,0.5]];portConstraint=eastwest;whiteSpace=wrap;html=1;" vertex="1" parent="G1ars9u8O8-HePyWM1Hm-102">
          <mxGeometry y="52" width="180" height="26" as="geometry" />
        </mxCell>
        <mxCell id="G1ars9u8O8-HePyWM1Hm-105" value="gênero = &#39;M&#39;" style="text;strokeColor=none;fillColor=none;align=left;verticalAlign=top;spacingLeft=4;spacingRight=4;overflow=hidden;rotatable=0;points=[[0,0.5],[1,0.5]];portConstraint=eastwest;whiteSpace=wrap;html=1;" vertex="1" parent="G1ars9u8O8-HePyWM1Hm-102">
          <mxGeometry y="78" width="180" height="26" as="geometry" />
        </mxCell>
        <mxCell id="G1ars9u8O8-HePyWM1Hm-118" value="altura = 1.68" style="text;strokeColor=none;fillColor=none;align=left;verticalAlign=top;spacingLeft=4;spacingRight=4;overflow=hidden;rotatable=0;points=[[0,0.5],[1,0.5]];portConstraint=eastwest;whiteSpace=wrap;html=1;" vertex="1" parent="G1ars9u8O8-HePyWM1Hm-102">
          <mxGeometry y="104" width="180" height="26" as="geometry" />
        </mxCell>
        <mxCell id="G1ars9u8O8-HePyWM1Hm-151" style="edgeStyle=orthogonalEdgeStyle;rounded=0;orthogonalLoop=1;jettySize=auto;html=1;endArrow=none;endFill=0;" edge="1" parent="WIyWlLk6GJQsqaUBKTNV-1" source="G1ars9u8O8-HePyWM1Hm-111" target="G1ars9u8O8-HePyWM1Hm-129">
          <mxGeometry relative="1" as="geometry" />
        </mxCell>
        <mxCell id="G1ars9u8O8-HePyWM1Hm-111" value="Estadio" style="swimlane;fontStyle=0;childLayout=stackLayout;horizontal=1;startSize=26;fillColor=none;horizontalStack=0;resizeParent=1;resizeParentMax=0;resizeLast=0;collapsible=1;marginBottom=0;whiteSpace=wrap;html=1;" vertex="1" parent="WIyWlLk6GJQsqaUBKTNV-1">
          <mxGeometry x="755" y="1030" width="140" height="52" as="geometry" />
        </mxCell>
        <mxCell id="G1ars9u8O8-HePyWM1Hm-113" value="nome = &quot;Itaquera&quot;" style="text;strokeColor=none;fillColor=none;align=left;verticalAlign=top;spacingLeft=4;spacingRight=4;overflow=hidden;rotatable=0;points=[[0,0.5],[1,0.5]];portConstraint=eastwest;whiteSpace=wrap;html=1;" vertex="1" parent="G1ars9u8O8-HePyWM1Hm-111">
          <mxGeometry y="26" width="140" height="26" as="geometry" />
        </mxCell>
        <mxCell id="G1ars9u8O8-HePyWM1Hm-143" style="edgeStyle=orthogonalEdgeStyle;rounded=0;orthogonalLoop=1;jettySize=auto;html=1;endArrow=none;endFill=0;" edge="1" parent="WIyWlLk6GJQsqaUBKTNV-1" source="G1ars9u8O8-HePyWM1Hm-114" target="G1ars9u8O8-HePyWM1Hm-131">
          <mxGeometry relative="1" as="geometry" />
        </mxCell>
        <mxCell id="G1ars9u8O8-HePyWM1Hm-114" value="Estadio" style="swimlane;fontStyle=0;childLayout=stackLayout;horizontal=1;startSize=26;fillColor=none;horizontalStack=0;resizeParent=1;resizeParentMax=0;resizeLast=0;collapsible=1;marginBottom=0;whiteSpace=wrap;html=1;" vertex="1" parent="WIyWlLk6GJQsqaUBKTNV-1">
          <mxGeometry x="745" y="1540" width="140" height="52" as="geometry" />
        </mxCell>
        <mxCell id="G1ars9u8O8-HePyWM1Hm-115" value="nome = &quot;Maracanã&quot;" style="text;strokeColor=none;fillColor=none;align=left;verticalAlign=top;spacingLeft=4;spacingRight=4;overflow=hidden;rotatable=0;points=[[0,0.5],[1,0.5]];portConstraint=eastwest;whiteSpace=wrap;html=1;" vertex="1" parent="G1ars9u8O8-HePyWM1Hm-114">
          <mxGeometry y="26" width="140" height="26" as="geometry" />
        </mxCell>
        <mxCell id="G1ars9u8O8-HePyWM1Hm-119" value="Jogador" style="swimlane;fontStyle=0;childLayout=stackLayout;horizontal=1;startSize=26;fillColor=none;horizontalStack=0;resizeParent=1;resizeParentMax=0;resizeLast=0;collapsible=1;marginBottom=0;whiteSpace=wrap;html=1;" vertex="1" parent="WIyWlLk6GJQsqaUBKTNV-1">
          <mxGeometry x="-40" y="952" width="190" height="130" as="geometry" />
        </mxCell>
        <mxCell id="G1ars9u8O8-HePyWM1Hm-120" value="nome = &quot;Gabigol&quot;" style="text;strokeColor=none;fillColor=none;align=left;verticalAlign=top;spacingLeft=4;spacingRight=4;overflow=hidden;rotatable=0;points=[[0,0.5],[1,0.5]];portConstraint=eastwest;whiteSpace=wrap;html=1;" vertex="1" parent="G1ars9u8O8-HePyWM1Hm-119">
          <mxGeometry y="26" width="190" height="26" as="geometry" />
        </mxCell>
        <mxCell id="G1ars9u8O8-HePyWM1Hm-121" value="dataNascimento = 01/01/2021" style="text;strokeColor=none;fillColor=none;align=left;verticalAlign=top;spacingLeft=4;spacingRight=4;overflow=hidden;rotatable=0;points=[[0,0.5],[1,0.5]];portConstraint=eastwest;whiteSpace=wrap;html=1;" vertex="1" parent="G1ars9u8O8-HePyWM1Hm-119">
          <mxGeometry y="52" width="190" height="26" as="geometry" />
        </mxCell>
        <mxCell id="G1ars9u8O8-HePyWM1Hm-122" value="gênero = &#39;M&#39;" style="text;strokeColor=none;fillColor=none;align=left;verticalAlign=top;spacingLeft=4;spacingRight=4;overflow=hidden;rotatable=0;points=[[0,0.5],[1,0.5]];portConstraint=eastwest;whiteSpace=wrap;html=1;" vertex="1" parent="G1ars9u8O8-HePyWM1Hm-119">
          <mxGeometry y="78" width="190" height="26" as="geometry" />
        </mxCell>
        <mxCell id="G1ars9u8O8-HePyWM1Hm-123" value="altura = 1.80" style="text;strokeColor=none;fillColor=none;align=left;verticalAlign=top;spacingLeft=4;spacingRight=4;overflow=hidden;rotatable=0;points=[[0,0.5],[1,0.5]];portConstraint=eastwest;whiteSpace=wrap;html=1;" vertex="1" parent="G1ars9u8O8-HePyWM1Hm-119">
          <mxGeometry y="104" width="190" height="26" as="geometry" />
        </mxCell>
        <mxCell id="G1ars9u8O8-HePyWM1Hm-176" style="edgeStyle=orthogonalEdgeStyle;orthogonalLoop=1;jettySize=auto;html=1;curved=1;endArrow=none;endFill=0;" edge="1" parent="WIyWlLk6GJQsqaUBKTNV-1" source="G1ars9u8O8-HePyWM1Hm-124" target="G1ars9u8O8-HePyWM1Hm-90">
          <mxGeometry relative="1" as="geometry">
            <Array as="points">
              <mxPoint x="320" y="1100" />
              <mxPoint x="185" y="1100" />
            </Array>
          </mxGeometry>
        </mxCell>
        <mxCell id="G1ars9u8O8-HePyWM1Hm-177" value="time que capitaneia" style="edgeLabel;html=1;align=center;verticalAlign=middle;resizable=0;points=[];" vertex="1" connectable="0" parent="G1ars9u8O8-HePyWM1Hm-176">
          <mxGeometry x="0.1903" y="14" relative="1" as="geometry">
            <mxPoint x="50" y="-14" as="offset" />
          </mxGeometry>
        </mxCell>
        <mxCell id="G1ars9u8O8-HePyWM1Hm-124" value="Jogador" style="swimlane;fontStyle=0;childLayout=stackLayout;horizontal=1;startSize=26;fillColor=none;horizontalStack=0;resizeParent=1;resizeParentMax=0;resizeLast=0;collapsible=1;marginBottom=0;whiteSpace=wrap;html=1;" vertex="1" parent="WIyWlLk6GJQsqaUBKTNV-1">
          <mxGeometry x="230" y="953" width="180" height="130" as="geometry" />
        </mxCell>
        <mxCell id="G1ars9u8O8-HePyWM1Hm-125" value="nome = &quot;Santos.&quot;" style="text;strokeColor=none;fillColor=none;align=left;verticalAlign=top;spacingLeft=4;spacingRight=4;overflow=hidden;rotatable=0;points=[[0,0.5],[1,0.5]];portConstraint=eastwest;whiteSpace=wrap;html=1;" vertex="1" parent="G1ars9u8O8-HePyWM1Hm-124">
          <mxGeometry y="26" width="180" height="26" as="geometry" />
        </mxCell>
        <mxCell id="G1ars9u8O8-HePyWM1Hm-126" value="dataNascimento = 02/02/1999" style="text;strokeColor=none;fillColor=none;align=left;verticalAlign=top;spacingLeft=4;spacingRight=4;overflow=hidden;rotatable=0;points=[[0,0.5],[1,0.5]];portConstraint=eastwest;whiteSpace=wrap;html=1;" vertex="1" parent="G1ars9u8O8-HePyWM1Hm-124">
          <mxGeometry y="52" width="180" height="26" as="geometry" />
        </mxCell>
        <mxCell id="G1ars9u8O8-HePyWM1Hm-127" value="gênero = &#39;M&#39;" style="text;strokeColor=none;fillColor=none;align=left;verticalAlign=top;spacingLeft=4;spacingRight=4;overflow=hidden;rotatable=0;points=[[0,0.5],[1,0.5]];portConstraint=eastwest;whiteSpace=wrap;html=1;" vertex="1" parent="G1ars9u8O8-HePyWM1Hm-124">
          <mxGeometry y="78" width="180" height="26" as="geometry" />
        </mxCell>
        <mxCell id="G1ars9u8O8-HePyWM1Hm-128" value="altura = 1.90" style="text;strokeColor=none;fillColor=none;align=left;verticalAlign=top;spacingLeft=4;spacingRight=4;overflow=hidden;rotatable=0;points=[[0,0.5],[1,0.5]];portConstraint=eastwest;whiteSpace=wrap;html=1;" vertex="1" parent="G1ars9u8O8-HePyWM1Hm-124">
          <mxGeometry y="104" width="180" height="26" as="geometry" />
        </mxCell>
        <mxCell id="G1ars9u8O8-HePyWM1Hm-129" value="Endereco" style="swimlane;fontStyle=0;childLayout=stackLayout;horizontal=1;startSize=26;fillColor=none;horizontalStack=0;resizeParent=1;resizeParentMax=0;resizeLast=0;collapsible=1;marginBottom=0;whiteSpace=wrap;html=1;" vertex="1" parent="WIyWlLk6GJQsqaUBKTNV-1">
          <mxGeometry x="755" y="900" width="140" height="52" as="geometry" />
        </mxCell>
        <mxCell id="G1ars9u8O8-HePyWM1Hm-130" value="CEP = &quot;08295-005&quot;" style="text;strokeColor=none;fillColor=none;align=left;verticalAlign=top;spacingLeft=4;spacingRight=4;overflow=hidden;rotatable=0;points=[[0,0.5],[1,0.5]];portConstraint=eastwest;whiteSpace=wrap;html=1;" vertex="1" parent="G1ars9u8O8-HePyWM1Hm-129">
          <mxGeometry y="26" width="140" height="26" as="geometry" />
        </mxCell>
        <mxCell id="G1ars9u8O8-HePyWM1Hm-131" value="Endereco" style="swimlane;fontStyle=0;childLayout=stackLayout;horizontal=1;startSize=26;fillColor=none;horizontalStack=0;resizeParent=1;resizeParentMax=0;resizeLast=0;collapsible=1;marginBottom=0;whiteSpace=wrap;html=1;" vertex="1" parent="WIyWlLk6GJQsqaUBKTNV-1">
          <mxGeometry x="745" y="1660" width="140" height="52" as="geometry" />
        </mxCell>
        <mxCell id="G1ars9u8O8-HePyWM1Hm-132" value="CEP = &quot;20271-970&quot;" style="text;strokeColor=none;fillColor=none;align=left;verticalAlign=top;spacingLeft=4;spacingRight=4;overflow=hidden;rotatable=0;points=[[0,0.5],[1,0.5]];portConstraint=eastwest;whiteSpace=wrap;html=1;" vertex="1" parent="G1ars9u8O8-HePyWM1Hm-131">
          <mxGeometry y="26" width="140" height="26" as="geometry" />
        </mxCell>
        <mxCell id="G1ars9u8O8-HePyWM1Hm-139" style="edgeStyle=orthogonalEdgeStyle;orthogonalLoop=1;jettySize=auto;html=1;endArrow=none;endFill=0;curved=1;" edge="1" parent="WIyWlLk6GJQsqaUBKTNV-1" source="G1ars9u8O8-HePyWM1Hm-95">
          <mxGeometry relative="1" as="geometry">
            <mxPoint x="745" y="1420" as="targetPoint" />
            <Array as="points">
              <mxPoint x="644" y="1340" />
              <mxPoint x="644" y="1419" />
              <mxPoint x="745" y="1419" />
            </Array>
          </mxGeometry>
        </mxCell>
        <mxCell id="G1ars9u8O8-HePyWM1Hm-161" value="visitante" style="edgeLabel;html=1;align=center;verticalAlign=middle;resizable=0;points=[];" vertex="1" connectable="0" parent="G1ars9u8O8-HePyWM1Hm-139">
          <mxGeometry x="0.0741" y="1" relative="1" as="geometry">
            <mxPoint x="5" y="7" as="offset" />
          </mxGeometry>
        </mxCell>
        <mxCell id="G1ars9u8O8-HePyWM1Hm-145" style="edgeStyle=orthogonalEdgeStyle;orthogonalLoop=1;jettySize=auto;html=1;exitX=1;exitY=0.5;exitDx=0;exitDy=0;entryX=0.5;entryY=0;entryDx=0;entryDy=0;endArrow=none;endFill=0;curved=1;" edge="1" parent="WIyWlLk6GJQsqaUBKTNV-1" source="G1ars9u8O8-HePyWM1Hm-91" target="G1ars9u8O8-HePyWM1Hm-78">
          <mxGeometry relative="1" as="geometry" />
        </mxCell>
        <mxCell id="G1ars9u8O8-HePyWM1Hm-153" style="edgeStyle=orthogonalEdgeStyle;orthogonalLoop=1;jettySize=auto;html=1;endArrow=none;endFill=0;curved=1;" edge="1" parent="WIyWlLk6GJQsqaUBKTNV-1" source="G1ars9u8O8-HePyWM1Hm-79" target="G1ars9u8O8-HePyWM1Hm-86">
          <mxGeometry relative="1" as="geometry" />
        </mxCell>
        <mxCell id="G1ars9u8O8-HePyWM1Hm-163" value="Classname" style="swimlane;fontStyle=0;childLayout=stackLayout;horizontal=1;startSize=26;fillColor=none;horizontalStack=0;resizeParent=1;resizeParentMax=0;resizeLast=0;collapsible=1;marginBottom=0;whiteSpace=wrap;html=1;" vertex="1" parent="WIyWlLk6GJQsqaUBKTNV-1">
          <mxGeometry x="110.95" y="550" width="140" height="104" as="geometry" />
        </mxCell>
        <mxCell id="G1ars9u8O8-HePyWM1Hm-164" value="+ field: type" style="text;strokeColor=none;fillColor=none;align=left;verticalAlign=top;spacingLeft=4;spacingRight=4;overflow=hidden;rotatable=0;points=[[0,0.5],[1,0.5]];portConstraint=eastwest;whiteSpace=wrap;html=1;" vertex="1" parent="G1ars9u8O8-HePyWM1Hm-163">
          <mxGeometry y="26" width="140" height="26" as="geometry" />
        </mxCell>
        <mxCell id="G1ars9u8O8-HePyWM1Hm-165" value="+ field: type" style="text;strokeColor=none;fillColor=none;align=left;verticalAlign=top;spacingLeft=4;spacingRight=4;overflow=hidden;rotatable=0;points=[[0,0.5],[1,0.5]];portConstraint=eastwest;whiteSpace=wrap;html=1;" vertex="1" parent="G1ars9u8O8-HePyWM1Hm-163">
          <mxGeometry y="52" width="140" height="26" as="geometry" />
        </mxCell>
        <mxCell id="G1ars9u8O8-HePyWM1Hm-166" value="+ field: type" style="text;strokeColor=none;fillColor=none;align=left;verticalAlign=top;spacingLeft=4;spacingRight=4;overflow=hidden;rotatable=0;points=[[0,0.5],[1,0.5]];portConstraint=eastwest;whiteSpace=wrap;html=1;" vertex="1" parent="G1ars9u8O8-HePyWM1Hm-163">
          <mxGeometry y="78" width="140" height="26" as="geometry" />
        </mxCell>
        <mxCell id="G1ars9u8O8-HePyWM1Hm-167" style="edgeStyle=orthogonalEdgeStyle;rounded=0;orthogonalLoop=1;jettySize=auto;html=1;endArrow=none;endFill=0;" edge="1" parent="WIyWlLk6GJQsqaUBKTNV-1" source="G1ars9u8O8-HePyWM1Hm-10" target="G1ars9u8O8-HePyWM1Hm-2">
          <mxGeometry relative="1" as="geometry">
            <Array as="points">
              <mxPoint x="150.95" y="480" />
            </Array>
          </mxGeometry>
        </mxCell>
        <mxCell id="G1ars9u8O8-HePyWM1Hm-168" value="1" style="edgeLabel;html=1;align=center;verticalAlign=middle;resizable=0;points=[];" vertex="1" connectable="0" parent="G1ars9u8O8-HePyWM1Hm-167">
          <mxGeometry x="-0.8723" relative="1" as="geometry">
            <mxPoint x="9" y="-7" as="offset" />
          </mxGeometry>
        </mxCell>
        <mxCell id="G1ars9u8O8-HePyWM1Hm-171" value="-timeQueCapitaneia" style="edgeLabel;html=1;align=center;verticalAlign=middle;resizable=0;points=[];" vertex="1" connectable="0" parent="G1ars9u8O8-HePyWM1Hm-167">
          <mxGeometry x="-0.5561" y="-1" relative="1" as="geometry">
            <mxPoint y="6" as="offset" />
          </mxGeometry>
        </mxCell>
        <mxCell id="G1ars9u8O8-HePyWM1Hm-172" value="0..1" style="edgeLabel;html=1;align=center;verticalAlign=middle;resizable=0;points=[];" vertex="1" connectable="0" parent="G1ars9u8O8-HePyWM1Hm-167">
          <mxGeometry x="0.9108" relative="1" as="geometry">
            <mxPoint x="11" y="-4" as="offset" />
          </mxGeometry>
        </mxCell>
        <mxCell id="G1ars9u8O8-HePyWM1Hm-173" value="- capitao" style="edgeLabel;html=1;align=center;verticalAlign=middle;resizable=0;points=[];" vertex="1" connectable="0" parent="WIyWlLk6GJQsqaUBKTNV-1">
          <mxGeometry x="156.95" y="486.00387096774205" as="geometry">
            <mxPoint x="-30" y="-14" as="offset" />
          </mxGeometry>
        </mxCell>
        <mxCell id="G1ars9u8O8-HePyWM1Hm-192" style="edgeStyle=orthogonalEdgeStyle;rounded=0;orthogonalLoop=1;jettySize=auto;html=1;entryX=0;entryY=0.5;entryDx=0;entryDy=0;endArrow=none;endFill=0;" edge="1" parent="WIyWlLk6GJQsqaUBKTNV-1" source="G1ars9u8O8-HePyWM1Hm-10" target="G1ars9u8O8-HePyWM1Hm-15">
          <mxGeometry relative="1" as="geometry" />
        </mxCell>
        <mxCell id="G1ars9u8O8-HePyWM1Hm-193" value="1" style="edgeLabel;html=1;align=center;verticalAlign=middle;resizable=0;points=[];" vertex="1" connectable="0" parent="G1ars9u8O8-HePyWM1Hm-192">
          <mxGeometry x="0.8195" y="1" relative="1" as="geometry">
            <mxPoint x="4" y="-7" as="offset" />
          </mxGeometry>
        </mxCell>
        <mxCell id="G1ars9u8O8-HePyWM1Hm-194" value="- estadio" style="edgeLabel;html=1;align=center;verticalAlign=middle;resizable=0;points=[];" vertex="1" connectable="0" parent="G1ars9u8O8-HePyWM1Hm-192">
          <mxGeometry x="0.6759" y="-2" relative="1" as="geometry">
            <mxPoint x="-7" y="6" as="offset" />
          </mxGeometry>
        </mxCell>
        <mxCell id="G1ars9u8O8-HePyWM1Hm-195" value="1" style="edgeLabel;html=1;align=center;verticalAlign=middle;resizable=0;points=[];" vertex="1" connectable="0" parent="G1ars9u8O8-HePyWM1Hm-192">
          <mxGeometry x="-0.8523" relative="1" as="geometry">
            <mxPoint x="-2" y="-9" as="offset" />
          </mxGeometry>
        </mxCell>
        <mxCell id="G1ars9u8O8-HePyWM1Hm-196" value="- time" style="edgeLabel;html=1;align=center;verticalAlign=middle;resizable=0;points=[];" vertex="1" connectable="0" parent="G1ars9u8O8-HePyWM1Hm-192">
          <mxGeometry x="-0.6574" y="1" relative="1" as="geometry">
            <mxPoint x="-2" y="8" as="offset" />
          </mxGeometry>
        </mxCell>
        <mxCell id="G1ars9u8O8-HePyWM1Hm-197" value="Instância mínima: 1 campeonato, 2 partidas, 2 times, 2 jogadores em cada time" style="text;html=1;strokeColor=none;fillColor=none;align=center;verticalAlign=middle;whiteSpace=wrap;rounded=0;" vertex="1" parent="WIyWlLk6GJQsqaUBKTNV-1">
          <mxGeometry x="170.95" y="860" width="460" height="30" as="geometry" />
        </mxCell>
      </root>
    </mxGraphModel>
  </diagram>
</mxfile>
